<svg width="656" height="119" viewBox="0 0 656 119" fill="none" xmlns="http://www.w3.org/2000/svg">
<path opacity="0.1" d="M47.6099 130.59C40.5299 130.59 33.7499 129.48 27.2699 127.26C20.8499 125.04 15.2099 121.83 10.3499 117.63C5.54994 113.43 2.09994 108.45 -6.0901e-05 102.69L23.3099 94.05C24.0299 96.09 25.5299 98.01 27.8099 99.81C30.0899 101.55 32.9399 102.99 36.3599 104.13C39.7799 105.21 43.5299 105.75 47.6099 105.75C51.5099 105.75 55.1699 105.18 58.5899 104.04C62.0699 102.84 64.8599 101.19 66.9599 99.09C69.1199 96.99 70.1999 94.53 70.1999 91.71C70.1999 88.89 69.0899 86.55 66.8699 84.69C64.6499 82.83 61.7999 81.36 58.3199 80.28C54.8399 79.14 51.2699 78.27 47.6099 77.67C38.5499 76.35 30.4199 74.22 23.2199 71.28C16.0799 68.28 10.4399 64.17 6.29994 58.95C2.15994 53.67 0.0899393 46.98 0.0899393 38.88C0.0899393 31.08 2.27994 24.27 6.65994 18.45C11.0999 12.63 16.9199 8.1 24.1199 4.86C31.3799 1.61999 39.2099 -6.4373e-06 47.6099 -6.4373e-06C54.5699 -6.4373e-06 61.2899 1.11 67.7699 3.33C74.2499 5.55 79.8899 8.76 84.6899 12.96C89.5499 17.16 93.0299 22.2 95.1299 28.08L71.8199 36.54C71.0999 34.5 69.5999 32.61 67.3199 30.87C65.0399 29.13 62.1899 27.72 58.7699 26.64C55.3499 25.56 51.6299 25.02 47.6099 25.02C43.7699 24.96 40.1099 25.53 36.6299 26.73C33.2099 27.93 30.3899 29.58 28.1699 31.68C26.0099 33.78 24.9299 36.18 24.9299 38.88C24.9299 42.42 25.9499 45.09 27.9899 46.89C30.0899 48.69 32.8499 49.98 36.2699 50.76C39.6899 51.54 43.4699 52.23 47.6099 52.83C56.1299 54.09 63.9899 56.34 71.1899 59.58C78.3899 62.76 84.1499 67.02 88.4699 72.36C92.8499 77.64 95.0399 84.09 95.0399 91.71C95.0399 99.51 92.8499 106.32 88.4699 112.14C84.0899 117.96 78.2999 122.49 71.0999 125.73C63.8999 128.97 56.0699 130.59 47.6099 130.59ZM174.123 38.25H198.963V128.25H174.033L172.863 118.89C170.523 122.37 167.523 125.19 163.863 127.35C160.203 129.51 155.913 130.59 150.993 130.59C144.273 130.59 138.003 129.33 132.183 126.81C126.363 124.29 121.233 120.81 116.793 116.37C112.353 111.93 108.873 106.8 106.353 100.98C103.893 95.1 102.663 88.8 102.663 82.08C102.663 75.66 103.833 69.66 106.173 64.08C108.513 58.5 111.813 53.58 116.073 49.32C120.333 45.06 125.223 41.73 130.743 39.33C136.323 36.93 142.323 35.73 148.743 35.73C154.263 35.73 159.213 36.9 163.593 39.24C168.033 41.58 171.903 44.55 175.203 48.15L174.123 38.25ZM150.363 106.74C154.443 106.74 158.133 105.69 161.433 103.59C164.733 101.49 167.343 98.67 169.263 95.13C171.183 91.53 172.143 87.57 172.143 83.25C172.143 78.87 171.183 74.91 169.263 71.37C167.343 67.83 164.733 65.01 161.433 62.91C158.133 60.81 154.443 59.76 150.363 59.76C146.223 59.76 142.473 60.81 139.113 62.91C135.753 65.01 133.083 67.86 131.103 71.46C129.123 75 128.133 78.93 128.133 83.25C128.133 87.57 129.123 91.53 131.103 95.13C133.143 98.67 135.843 101.49 139.203 103.59C142.563 105.69 146.283 106.74 150.363 106.74ZM277.75 38.25H302.59V128.25H277.66L276.49 118.89C274.15 122.37 271.15 125.19 267.49 127.35C263.83 129.51 259.54 130.59 254.62 130.59C247.9 130.59 241.63 129.33 235.81 126.81C229.99 124.29 224.86 120.81 220.42 116.37C215.98 111.93 212.5 106.8 209.98 100.98C207.52 95.1 206.29 88.8 206.29 82.08C206.29 75.66 207.46 69.66 209.8 64.08C212.14 58.5 215.44 53.58 219.7 49.32C223.96 45.06 228.85 41.73 234.37 39.33C239.95 36.93 245.95 35.73 252.37 35.73C257.89 35.73 262.84 36.9 267.22 39.24C271.66 41.58 275.53 44.55 278.83 48.15L277.75 38.25ZM253.99 106.74C258.07 106.74 261.76 105.69 265.06 103.59C268.36 101.49 270.97 98.67 272.89 95.13C274.81 91.53 275.77 87.57 275.77 83.25C275.77 78.87 274.81 74.91 272.89 71.37C270.97 67.83 268.36 65.01 265.06 62.91C261.76 60.81 258.07 59.76 253.99 59.76C249.85 59.76 246.1 60.81 242.74 62.91C239.38 65.01 236.71 67.86 234.73 71.46C232.75 75 231.76 78.93 231.76 83.25C231.76 87.57 232.75 91.53 234.73 95.13C236.77 98.67 239.47 101.49 242.83 103.59C246.19 105.69 249.91 106.74 253.99 106.74ZM343.264 129.87C338.644 129.51 334.204 128.55 329.944 126.99C325.684 125.37 321.874 123.21 318.514 120.51C315.214 117.75 312.634 114.45 310.774 110.61L331.654 101.61C332.314 102.57 333.304 103.62 334.624 104.76C335.944 105.84 337.534 106.8 339.394 107.64C341.314 108.48 343.534 108.9 346.054 108.9C347.914 108.9 349.714 108.69 351.454 108.27C353.194 107.79 354.604 107.04 355.684 106.02C356.764 104.94 357.304 103.53 357.304 101.79C357.304 99.87 356.614 98.4 355.234 97.38C353.854 96.36 352.174 95.61 350.194 95.13C348.274 94.59 346.414 94.14 344.614 93.78C339.094 92.82 333.874 91.11 328.954 88.65C324.094 86.13 320.134 82.89 317.074 78.93C314.014 74.97 312.484 70.23 312.484 64.71C312.484 58.65 314.074 53.43 317.254 49.05C320.434 44.61 324.574 41.19 329.674 38.79C334.774 36.39 340.294 35.19 346.234 35.19C353.254 35.19 359.764 36.66 365.764 39.6C371.764 42.54 376.594 46.68 380.254 52.02L360.634 63.63C359.854 62.49 358.834 61.41 357.574 60.39C356.374 59.31 354.964 58.41 353.344 57.69C351.784 56.91 350.104 56.46 348.304 56.34C345.964 56.16 343.834 56.31 341.914 56.79C339.994 57.21 338.464 58.02 337.324 59.22C336.244 60.42 335.704 62.04 335.704 64.08C335.704 66.06 336.574 67.53 338.314 68.49C340.054 69.39 342.064 70.08 344.344 70.56C346.624 70.98 348.634 71.49 350.374 72.09C355.594 73.77 360.484 75.93 365.044 78.57C369.664 81.15 373.384 84.33 376.204 88.11C379.024 91.89 380.344 96.33 380.164 101.43C380.164 107.37 378.394 112.59 374.854 117.09C371.314 121.53 366.724 124.92 361.084 127.26C355.504 129.54 349.564 130.41 343.264 129.87ZM391.873 128.25V2.24999H416.713V103.41H467.473V128.25H391.873ZM535.442 38.25H561.902L512.582 173.25H486.302L502.502 128.25L470.102 38.25H497.282L514.922 94.32L535.442 38.25ZM655.841 71.01V128.25H631.001V77.85C631.001 74.67 630.221 71.82 628.661 69.3C627.161 66.72 625.121 64.68 622.541 63.18C620.021 61.68 617.201 60.93 614.081 60.93C610.961 60.93 608.111 61.68 605.531 63.18C602.951 64.68 600.911 66.72 599.411 69.3C597.911 71.82 597.161 74.67 597.161 77.85V128.25H572.321L572.231 38.25H597.071L597.161 44.91C600.161 42.03 603.671 39.78 607.691 38.16C611.771 36.54 616.061 35.73 620.561 35.73C627.101 35.73 633.011 37.32 638.291 40.5C643.631 43.68 647.891 47.94 651.071 53.28C654.251 58.56 655.841 64.47 655.841 71.01Z" fill="white"/>
</svg>
