<svg width="176" height="60" viewBox="0 0 176 60" fill="none" xmlns="http://www.w3.org/2000/svg">
<g clip-path="url(#clip0_75_6916)">
<path d="M19.8787 13.9675C20.2982 14.3871 20.8328 14.6728 21.4147 14.7885C21.9966 14.9043 22.5998 14.8449 23.1481 14.6179C23.6963 14.3908 24.1648 14.0063 24.4945 13.513C24.824 13.0196 25 12.4396 25 11.8462C25 11.2529 24.824 10.6728 24.4945 10.1795C24.1648 9.68616 23.6963 9.30164 23.1481 9.07452C22.5998 8.84748 21.9966 8.78808 21.4147 8.90385C20.8328 9.01963 20.2982 9.30541 19.8787 9.725C19.3161 10.2876 19 11.0506 19 11.8462C19 12.6419 19.3161 13.4049 19.8787 13.9675Z" fill="#D1D7F5"/>
<path d="M29.0295 33.1548L42.6337 19.4774C42.9228 19.1867 43.1522 18.8417 43.3088 18.4618C43.4652 18.082 43.5459 17.675 43.5459 17.2638C43.5459 16.8527 43.4654 16.4456 43.309 16.0658C43.1525 15.686 42.9231 15.3408 42.6339 15.0501C42.3449 14.7593 42.0016 14.5288 41.6238 14.3714C41.2461 14.214 40.8412 14.1331 40.4322 14.133C40.0233 14.133 39.6184 14.2139 39.2406 14.3713C38.8627 14.5285 38.5195 14.7591 38.2303 15.0498L32.4804 20.8307C32.248 21.0047 31.9612 21.0889 31.6722 21.0679C31.3833 21.0471 31.1115 20.9223 30.9063 20.7167C30.6772 20.4876 30.5474 20.1769 30.5449 19.852C30.5425 19.5272 30.6677 19.2144 30.8934 18.982L35.1025 14.7503C35.6864 14.1632 36.0144 13.3668 36.0144 12.5366C36.0143 11.7063 35.6862 10.9101 35.1022 10.323C34.5182 9.73594 33.7261 9.40617 32.9003 9.40617C32.0744 9.40626 31.2825 9.73611 30.6985 10.3233L18.9662 22.1192C18.8538 22.2323 18.7203 22.3219 18.5734 22.3831C18.4265 22.4444 18.269 22.4758 18.11 22.4758C17.9509 22.4758 17.7935 22.4444 17.6466 22.3831C17.4997 22.3219 17.3661 22.2323 17.2537 22.1192C17.1413 22.0062 17.0521 21.8719 16.9912 21.7243C16.9304 21.5766 16.8991 21.4182 16.8991 21.2583C16.8991 21.0985 16.9304 20.9402 16.9912 20.7925C17.0521 20.6447 17.1413 20.5105 17.2537 20.3975L17.9782 19.6722C18.5622 19.085 18.8901 18.2888 18.89 17.4584C18.89 16.6281 18.5619 15.8319 17.9779 15.2448C17.3939 14.6578 16.6019 14.328 15.776 14.3281C14.9502 14.3281 14.1582 14.658 13.5742 15.2451L8.65353 20.1923C8.06959 20.7793 7.74144 21.5756 7.74136 22.4059C7.74136 23.2361 8.06933 24.0325 8.65328 24.6196C9.23723 25.2068 10.0292 25.5366 10.855 25.5367C11.6809 25.5367 12.473 25.2069 13.0569 24.6199L13.771 23.8995C13.9981 23.6712 14.3063 23.543 14.6275 23.543C14.9487 23.5431 15.2568 23.6714 15.4838 23.8999C15.711 24.1282 15.8385 24.438 15.8385 24.7609C15.8384 25.0839 15.7107 25.3936 15.4836 25.6219L8.12832 33.013C7.54437 33.6001 7.21632 34.3965 7.21641 35.2267C7.21649 36.0571 7.54463 36.8533 8.12858 37.4403C8.71261 38.0274 9.50466 38.3572 10.3305 38.3571C11.1563 38.357 11.9483 38.0272 12.5323 37.4401L27.4107 22.4846C27.6419 22.2577 27.9529 22.1316 28.276 22.1339C28.599 22.1362 28.9082 22.2667 29.1361 22.497C29.3406 22.7036 29.4644 22.9772 29.4851 23.2679C29.5057 23.5586 29.4216 23.8471 29.2483 24.0807L19.7845 33.5942C19.2131 34.1839 18.8958 34.9761 18.9012 35.7995C18.9065 36.6227 19.2342 37.4108 19.8132 37.9929C20.3923 38.5751 21.1761 38.9045 21.995 38.9099C22.8139 38.9153 23.6019 38.5963 24.1885 38.0218L25.9789 36.2217C26.209 36.0854 26.4777 36.0295 26.7427 36.0631C27.0078 36.0965 27.2543 36.2173 27.4438 36.4066C27.6729 36.6357 27.8028 36.9464 27.8052 37.2713C27.8077 37.5962 27.6823 37.9089 27.4567 38.1413L20.3975 45.2391C19.8261 45.8288 19.5087 46.6211 19.5141 47.4444C19.5195 48.2677 19.8472 49.0558 20.4262 49.6379C21.0053 50.2201 21.7891 50.5495 22.6079 50.5549C23.4268 50.5603 24.2148 50.2412 24.8014 49.6667L36.5362 37.8708C36.7634 37.6425 37.0714 37.5142 37.3926 37.5143C37.7139 37.5144 38.0219 37.6427 38.249 37.8711C38.4761 38.0995 38.6037 38.4093 38.6036 38.7322C38.6035 39.0551 38.4759 39.3649 38.2487 39.5932L34.9529 42.9042C34.6551 43.1929 34.4175 43.5383 34.2539 43.9204C34.0904 44.3024 34.0042 44.7133 34.0004 45.1293C33.9966 45.5451 34.0753 45.9577 34.2319 46.3427C34.3884 46.7277 34.6197 47.0774 34.9123 47.3715C35.2047 47.6657 35.5526 47.8982 35.9356 48.0556C36.3185 48.213 36.7288 48.2921 37.1425 48.2882C37.5562 48.2845 37.9649 48.1978 38.345 48.0334C38.7249 47.869 39.0685 47.6301 39.3556 47.3306L46.8458 39.8008C47.4298 39.2138 47.7579 38.4175 47.758 37.5872C47.758 37.1761 47.6775 36.769 47.5211 36.3891C47.3646 36.0094 47.1352 35.6642 46.8461 35.3735C46.557 35.0827 46.2137 34.8522 45.8359 34.6948C45.4582 34.5374 45.0533 34.4565 44.6443 34.4564C43.8185 34.4564 43.0265 34.7862 42.4424 35.3732L41.7296 36.0899C41.5025 36.3183 41.1944 36.4466 40.8732 36.4467C40.552 36.4468 40.2439 36.3185 40.0167 36.0902C39.7895 35.8619 39.6619 35.5521 39.6618 35.2292C39.6618 34.9063 39.7894 34.5965 40.0164 34.3682L47.3717 26.977C47.9431 26.3872 48.2604 25.5949 48.2551 24.7717C48.2497 23.9484 47.922 23.1604 47.343 22.5782C46.7639 21.9961 45.9801 21.6667 45.1613 21.6612C44.3424 21.6558 43.5543 21.9749 42.9677 22.5493L30.94 34.6399C30.7088 34.8668 30.3978 34.9927 30.0746 34.9903C29.7515 34.9878 29.4425 34.8573 29.2146 34.627C29.0263 34.4366 28.9059 34.189 28.8725 33.9225C28.8389 33.6562 28.8942 33.3862 29.0295 33.1548Z" fill="#D1D7F5"/>
</g>
<path d="M67.1847 39.6542C66.1767 39.6542 65.2713 39.5702 64.4687 39.4022C63.666 39.2342 62.77 39.0102 61.7807 38.7302C61.1273 38.5435 60.6887 38.4409 60.4647 38.4222L60.7167 33.2422H62.9847L63.6007 36.8542C63.8433 37.1155 64.2727 37.3489 64.8887 37.5542C65.5233 37.7595 66.242 37.8622 67.0447 37.8622C68.2953 37.8622 69.2287 37.5915 69.8447 37.0502C70.4793 36.4902 70.7967 35.7155 70.7967 34.7262C70.7967 34.0729 70.61 33.5129 70.2367 33.0462C69.8633 32.5609 69.35 32.1315 68.6967 31.7582C68.0433 31.3662 67.1473 30.9182 66.0087 30.4142C64.4593 29.7049 63.1713 28.8649 62.1447 27.8942C61.1367 26.9049 60.6327 25.5702 60.6327 23.8902C60.6327 22.8449 60.9033 21.9022 61.4447 21.0622C61.986 20.2035 62.7887 19.5315 63.8527 19.0462C64.9353 18.5422 66.2513 18.2902 67.8007 18.2902C68.7153 18.2902 69.518 18.3555 70.2087 18.4862C70.918 18.6169 71.6833 18.7942 72.5047 19.0182C72.99 19.1489 73.354 19.2329 73.5967 19.2702L73.4287 24.1702H71.1887L70.6007 20.7262C70.4327 20.5582 70.0967 20.3995 69.5927 20.2502C69.0887 20.0822 68.5287 19.9982 67.9127 19.9982C66.7927 19.9982 65.9433 20.2595 65.3647 20.7822C64.8047 21.2862 64.5247 21.9675 64.5247 22.8262C64.5247 23.5169 64.73 24.1142 65.1407 24.6182C65.57 25.1222 66.0833 25.5515 66.6807 25.9062C67.278 26.2422 68.2207 26.7275 69.5087 27.3622C70.554 27.8662 71.45 28.3609 72.1967 28.8462C72.9433 29.3315 73.5873 29.9662 74.1287 30.7502C74.67 31.5155 74.9407 32.4209 74.9407 33.4662C74.9407 34.4929 74.6793 35.4729 74.1567 36.4062C73.6527 37.3395 72.8127 38.1142 71.6367 38.7302C70.4793 39.3462 68.9953 39.6542 67.1847 39.6542ZM76.6917 34.9782C76.6917 33.2795 77.5411 32.0009 79.2397 31.1422C80.9571 30.2835 83.1691 29.8449 85.8757 29.8262V29.1822C85.8757 28.4169 85.7917 27.8195 85.6237 27.3902C85.4744 26.9609 85.1851 26.6435 84.7557 26.4382C84.3451 26.2142 83.7384 26.1022 82.9357 26.1022C82.0211 26.1022 81.1997 26.2235 80.4717 26.4662C79.7437 26.6902 78.9877 26.9889 78.2037 27.3622L77.3357 25.5702C77.6157 25.3275 78.0824 25.0382 78.7357 24.7022C79.4077 24.3662 80.2011 24.0769 81.1157 23.8342C82.0304 23.5729 82.9731 23.4422 83.9437 23.4422C85.3811 23.4422 86.5011 23.6289 87.3037 24.0022C88.1251 24.3755 88.7131 24.9729 89.0677 25.7942C89.4224 26.6155 89.5997 27.7169 89.5997 29.0982V37.6662H91.1117V39.2342C90.7384 39.3275 90.2064 39.4209 89.5157 39.5142C88.8251 39.6075 88.2184 39.6542 87.6957 39.6542C87.0611 39.6542 86.6317 39.5609 86.4077 39.3742C86.2024 39.1875 86.0997 38.8049 86.0997 38.2262V37.4702C85.5957 38.0302 84.9424 38.5342 84.1397 38.9822C83.3371 39.4302 82.4317 39.6542 81.4237 39.6542C80.5651 39.6542 79.7717 39.4769 79.0437 39.1222C78.3344 38.7489 77.7651 38.2169 77.3357 37.5262C76.9064 36.8169 76.6917 35.9675 76.6917 34.9782ZM83.2157 37.3302C83.6077 37.3302 84.0557 37.2182 84.5597 36.9942C85.0637 36.7515 85.5024 36.4622 85.8757 36.1262V31.5342C84.1957 31.5342 82.9357 31.8235 82.0957 32.4022C81.2744 32.9622 80.8637 33.6902 80.8637 34.5862C80.8637 35.4822 81.0691 36.1635 81.4797 36.6302C81.9091 37.0969 82.4877 37.3302 83.2157 37.3302ZM92.5511 34.9782C92.5511 33.2795 93.4005 32.0009 95.0991 31.1422C96.8165 30.2835 99.0285 29.8449 101.735 29.8262V29.1822C101.735 28.4169 101.651 27.8195 101.483 27.3902C101.334 26.9609 101.044 26.6435 100.615 26.4382C100.204 26.2142 99.5978 26.1022 98.7951 26.1022C97.8805 26.1022 97.0591 26.2235 96.3311 26.4662C95.6031 26.6902 94.8471 26.9889 94.0631 27.3622L93.1951 25.5702C93.4751 25.3275 93.9418 25.0382 94.5951 24.7022C95.2671 24.3662 96.0605 24.0769 96.9751 23.8342C97.8898 23.5729 98.8325 23.4422 99.8031 23.4422C101.24 23.4422 102.36 23.6289 103.163 24.0022C103.984 24.3755 104.572 24.9729 104.927 25.7942C105.282 26.6155 105.459 27.7169 105.459 29.0982V37.6662H106.971V39.2342C106.598 39.3275 106.066 39.4209 105.375 39.5142C104.684 39.6075 104.078 39.6542 103.555 39.6542C102.92 39.6542 102.491 39.5609 102.267 39.3742C102.062 39.1875 101.959 38.8049 101.959 38.2262V37.4702C101.455 38.0302 100.802 38.5342 99.9991 38.9822C99.1965 39.4302 98.2911 39.6542 97.2831 39.6542C96.4245 39.6542 95.6311 39.4769 94.9031 39.1222C94.1938 38.7489 93.6245 38.2169 93.1951 37.5262C92.7658 36.8169 92.5511 35.9675 92.5511 34.9782ZM99.0751 37.3302C99.4671 37.3302 99.9151 37.2182 100.419 36.9942C100.923 36.7515 101.362 36.4622 101.735 36.1262V31.5342C100.055 31.5342 98.7951 31.8235 97.9551 32.4022C97.1338 32.9622 96.7231 33.6902 96.7231 34.5862C96.7231 35.4822 96.9285 36.1635 97.3391 36.6302C97.7685 37.0969 98.3471 37.3302 99.0751 37.3302ZM111.826 37.0502C111.976 37.2742 112.312 37.4889 112.834 37.6942C113.376 37.8809 113.917 37.9742 114.458 37.9742C115.336 37.9742 115.989 37.7969 116.418 37.4422C116.866 37.0689 117.09 36.5835 117.09 35.9862C117.09 35.3702 116.82 34.8755 116.278 34.5022C115.737 34.1102 114.822 33.6342 113.534 33.0742L112.75 32.7382C111.462 32.1969 110.501 31.5435 109.866 30.7782C109.232 30.0129 108.914 29.0235 108.914 27.8102C108.914 26.9702 109.166 26.2235 109.67 25.5702C110.174 24.8982 110.884 24.3755 111.798 24.0022C112.713 23.6289 113.768 23.4422 114.962 23.4422C115.84 23.4422 116.586 23.4982 117.202 23.6102C117.837 23.7222 118.5 23.8715 119.19 24.0582C119.564 24.1889 119.844 24.2635 120.03 24.2822V27.9502H117.818L117.174 25.8222C117.062 25.6355 116.81 25.4675 116.418 25.3182C116.026 25.1689 115.578 25.0942 115.074 25.0942C114.309 25.0942 113.693 25.2622 113.226 25.5982C112.778 25.9155 112.554 26.3635 112.554 26.9422C112.554 27.4649 112.713 27.9035 113.03 28.2582C113.348 28.5942 113.693 28.8555 114.066 29.0422C114.44 29.2289 115.13 29.5369 116.138 29.9662C117.146 30.3955 117.977 30.8062 118.63 31.1982C119.302 31.5902 119.853 32.1035 120.282 32.7382C120.73 33.3542 120.954 34.1102 120.954 35.0062C120.954 36.3875 120.413 37.5075 119.33 38.3662C118.248 39.2249 116.689 39.6542 114.654 39.6542C113.702 39.6542 112.844 39.5702 112.078 39.4022C111.332 39.2342 110.464 39.0102 109.474 38.7302L108.858 38.5342V34.8382H111.182L111.826 37.0502ZM125.31 20.6422L123.154 20.2782V18.5422H132.114V20.2782L129.426 20.6422V37.3582L135.418 37.1062L137.182 31.8702L139.45 32.1782L138.582 39.3462H123.098V37.6662L125.31 37.3862V20.6422ZM143.585 46.3182C143.249 46.3182 142.885 46.2902 142.493 46.2342C142.12 46.1782 141.849 46.1129 141.681 46.0382V43.0422C141.812 43.1169 142.073 43.1915 142.465 43.2662C142.857 43.3409 143.212 43.3782 143.529 43.3782C144.463 43.3782 145.228 43.0702 145.825 42.4542C146.441 41.8382 147.011 40.8022 147.533 39.3462H146.021L140.757 25.7662L139.497 25.4022V23.7782H147.197V25.4022L145.153 25.7382L147.645 33.4942L148.653 36.7982L149.521 33.4942L151.817 25.7382L150.053 25.4022V23.7782H156.129V25.4022L154.757 25.7382C153.731 28.8742 152.713 31.8982 151.705 34.8102C150.697 37.7222 150.109 39.3555 149.941 39.7102C149.344 41.2782 148.775 42.5289 148.233 43.4622C147.692 44.3955 147.048 45.1049 146.301 45.5902C145.555 46.0755 144.649 46.3182 143.585 46.3182ZM158.712 26.4382L156.92 25.9342V24.0022L161.568 23.4142H161.652L162.352 23.9742V25.0662L162.324 25.7382C162.978 25.1222 163.827 24.5902 164.872 24.1422C165.918 23.6942 166.972 23.4702 168.036 23.4702C169.175 23.4702 170.062 23.6849 170.696 24.1142C171.35 24.5249 171.816 25.1782 172.096 26.0742C172.376 26.9702 172.516 28.1835 172.516 29.7142V37.4422L174.224 37.6662V39.3462H167V37.6662L168.512 37.4422V29.7142C168.512 28.7435 168.447 27.9875 168.316 27.4462C168.186 26.8862 167.943 26.4849 167.588 26.2422C167.252 25.9809 166.767 25.8502 166.132 25.8502C165.068 25.8502 163.93 26.3075 162.716 27.2222V37.4142L164.396 37.6662V39.3462H157.088V37.6662L158.712 37.4142V26.4382Z" fill="white"/>
<defs>
<clipPath id="clip0_75_6916">
<rect width="54.8688" height="59.6924" fill="white"/>
</clipPath>
</defs>
</svg>
