<svg width="330" height="330" viewBox="0 0 330 330" fill="none" xmlns="http://www.w3.org/2000/svg">
<path d="M101.82 40.5196C105.193 43.8394 109.492 46.1005 114.171 47.0159C118.851 47.9319 123.701 47.4619 128.109 45.6655C132.518 43.8692 136.285 40.8269 138.936 36.9237C141.586 33.0198 143.001 28.4308 143.001 23.736C143.001 19.0419 141.586 14.4522 138.936 10.549C136.285 6.64584 132.518 3.60353 128.109 1.80654C123.701 0.0102034 118.851 -0.459786 114.171 0.456212C109.492 1.37221 105.193 3.63335 101.82 6.95311C97.2957 11.4041 94.7542 17.4414 94.7542 23.736C94.7542 30.0313 97.2957 36.0686 101.82 40.5196Z" fill="#D1D7F5"/>
<path d="M175.403 192.33L284.797 84.1144C287.122 81.8145 288.967 79.0843 290.225 76.0788C291.484 73.074 292.132 69.8533 292.132 66.6003C292.132 63.3479 291.485 60.1266 290.227 57.1218C288.969 54.1163 287.124 51.3854 284.799 49.0855C282.475 46.7849 279.714 44.9605 276.676 43.7158C273.639 42.4704 270.383 41.8298 267.095 41.8291C263.806 41.8291 260.55 42.4697 257.512 43.7144C254.474 44.9584 251.714 46.7828 249.389 49.0828L203.152 94.8213C201.284 96.1979 198.978 96.8642 196.654 96.6985C194.33 96.5335 192.145 95.5465 190.495 93.9196C188.653 92.1067 187.609 89.6485 187.589 87.078C187.569 84.5081 188.577 82.0336 190.392 80.1943L224.237 46.7132C228.933 42.0679 231.57 35.7674 231.57 29.1983C231.569 22.6293 228.931 16.3295 224.235 11.6842C219.539 7.03969 213.17 4.43057 206.529 4.43057C199.888 4.43125 193.52 7.04102 188.824 11.6869L94.4825 105.016C93.5784 105.911 92.5052 106.62 91.3234 107.104C90.1423 107.589 88.8759 107.838 87.5972 107.838C86.3184 107.838 85.0527 107.589 83.8709 107.104C82.6898 106.62 81.6159 105.911 80.7118 105.016C79.8078 104.122 79.0907 103.06 78.6012 101.892C78.1117 100.723 77.8601 99.4699 77.8601 98.205C77.8601 96.94 78.1117 95.6879 78.6012 94.519C79.0907 93.3501 79.8078 92.288 80.7118 91.3938L86.5377 85.6554C91.2333 81.0095 93.8706 74.7096 93.8699 68.1399C93.8699 61.5708 91.2313 55.271 86.535 50.6258C81.8393 45.9812 75.4703 43.3721 68.8291 43.3728C62.1885 43.3728 55.8202 45.9832 51.1246 50.6285L11.5562 89.7702C6.86056 94.4148 4.22192 100.715 4.22123 107.284C4.22123 113.853 6.85852 120.154 11.5541 124.799C16.2498 129.445 22.6181 132.055 29.2586 132.056C35.8999 132.056 42.2689 129.446 46.9645 124.802L52.7065 119.102C54.5332 117.296 57.011 116.281 59.5939 116.281C62.1768 116.282 64.6539 117.297 66.4799 119.105C68.3066 120.912 69.3316 123.362 69.3316 125.917C69.331 128.473 68.3045 130.923 66.4778 132.73L7.33285 191.208C2.63722 195.853 -0.000693699 202.154 -6.19883e-06 208.723C0.000681301 215.293 2.63932 221.593 7.33495 226.237C12.0313 230.882 18.4003 233.491 25.0408 233.491C31.6814 233.49 38.0504 230.88 42.746 226.235L162.386 107.907C164.245 106.112 166.746 105.114 169.344 105.133C171.942 105.151 174.428 106.183 176.261 108.005C177.905 109.64 178.901 111.804 179.066 114.104C179.232 116.404 178.556 118.687 177.163 120.535L101.063 195.806C96.468 200.472 93.916 206.74 93.9593 213.255C94.0026 219.768 96.6371 226.003 101.294 230.609C105.95 235.215 112.252 237.821 118.837 237.864C125.422 237.907 131.759 235.383 136.476 230.838L150.873 216.596C152.723 215.517 154.884 215.075 157.015 215.34C159.146 215.605 161.129 216.56 162.652 218.058C164.495 219.871 165.539 222.329 165.558 224.9C165.578 227.47 164.57 229.944 162.756 231.783L105.991 287.941C101.397 292.607 98.8447 298.876 98.888 305.389C98.9313 311.904 101.566 318.138 106.222 322.744C110.879 327.35 117.182 329.957 123.766 329.999C130.351 330.042 136.687 327.518 141.404 322.972L235.766 229.643C237.593 227.836 240.07 226.822 242.653 226.822C245.236 226.823 247.713 227.838 249.539 229.645C251.365 231.453 252.391 233.903 252.39 236.458C252.39 239.013 251.363 241.464 249.536 243.27L223.035 269.467C220.639 271.751 218.729 274.484 217.414 277.507C216.099 280.53 215.406 283.781 215.375 287.072C215.344 290.363 215.978 293.626 217.236 296.672C218.495 299.719 220.355 302.486 222.707 304.813C225.059 307.14 227.857 308.98 230.936 310.225C234.015 311.471 237.315 312.096 240.642 312.066C243.968 312.036 247.255 311.35 250.311 310.049C253.366 308.749 256.129 306.859 258.438 304.489L318.667 244.913C323.363 240.269 326.002 233.968 326.002 227.399C326.002 224.147 325.355 220.926 324.097 217.92C322.839 214.915 320.995 212.184 318.669 209.885C316.345 207.584 313.585 205.759 310.547 204.515C307.509 203.269 304.253 202.629 300.965 202.628C294.324 202.628 287.955 205.237 283.259 209.882L277.527 215.553C275.701 217.359 273.224 218.375 270.641 218.375C268.058 218.376 265.58 217.361 263.753 215.555C261.927 213.748 260.9 211.298 260.899 208.743C260.899 206.188 261.925 203.737 263.751 201.93L322.896 143.451C327.491 138.785 330.043 132.516 329.999 126.003C329.956 119.489 327.322 113.254 322.665 108.648C318.009 104.042 311.706 101.436 305.122 101.392C298.537 101.35 292.2 103.874 287.483 108.419L190.766 204.08C188.907 205.875 186.406 206.872 183.807 206.853C181.209 206.833 178.724 205.8 176.892 203.978C175.377 202.472 174.409 200.512 174.14 198.404C173.871 196.297 174.315 194.161 175.403 192.33Z" fill="#D1D7F5"/>
</svg>
